<?xml version="1.0" standalone="no"?>
<!DOCTYPE svg PUBLIC "-//W3C//DTD SVG 20010904//EN"
 "http://www.w3.org/TR/2001/REC-SVG-20010904/DTD/svg10.dtd">
<svg version="1.0" xmlns="http://www.w3.org/2000/svg"
 width="221.000000pt" height="32.000000pt" viewBox="0 0 221.000000 32.000000"
 preserveAspectRatio="xMidYMid meet">
<metadata>
Created by potrace 1.16, written by Peter Selinger 2001-2019
</metadata>
<g transform="translate(0.000000,32.000000) scale(0.100000,-0.100000)"
fill="#000000" stroke="none">
<path d="M135 260 c-3 -5 -3 -15 0 -20 11 -17 -4 -46 -30 -58 -13 -6 -42 -28
-64 -48 -32 -29 -41 -43 -41 -70 0 -38 35 -68 51 -43 7 11 9 9 9 -6 0 -17 2
-17 10 -5 5 8 10 10 10 4 0 -20 102 -16 175 7 137 42 205 91 205 148 0 32 -8
44 -39 61 -18 9 -25 9 -31 0 -6 -9 -9 -9 -12 1 -4 11 -29 14 -105 14 -67 0
-105 4 -116 13 -10 9 -17 10 -22 2z m-19 -108 c-4 -11 0 -35 8 -54 9 -20 12
-38 9 -42 -4 -3 -1 -6 6 -6 7 0 15 9 18 20 6 23 23 27 23 5 0 -21 20 -19 21 3
1 16 2 16 6 0 2 -10 11 -18 18 -18 9 0 12 6 8 18 -5 14 -3 13 10 -3 l16 -20 1
20 c1 11 4 14 7 8 7 -20 23 -15 16 5 -5 14 -3 13 10 -3 19 -25 13 -29 -77 -50
-70 -16 -120 -13 -169 12 -24 12 -26 16 -16 36 9 19 77 86 87 87 2 0 1 -8 -2
-18z"/>
<path d="M1110 248 c-36 -13 -40 -25 -40 -110 0 -63 3 -78 15 -78 11 0 15 11
15 40 0 39 1 40 35 40 34 0 35 -1 35 -40 0 -29 4 -40 15 -40 12 0 15 15 15 78
0 42 -4 82 -8 89 -13 20 -55 31 -82 21z"/>
<path d="M1319 248 c-34 -13 -39 -25 -39 -110 l0 -78 54 0 c36 0 60 5 70 16
18 18 21 60 5 69 -6 4 -7 19 -4 35 12 55 -30 88 -86 68z"/>
<path d="M1740 252 c-41 -13 -50 -33 -50 -114 0 -63 3 -78 15 -78 11 0 15 11
15 40 0 39 1 40 35 40 34 0 35 -1 35 -40 0 -33 3 -40 20 -40 18 0 20 7 20 59
0 78 -15 117 -48 129 -15 5 -34 7 -42 4z"/>
<path d="M2073 248 c-60 -16 -91 -86 -61 -141 25 -47 80 -65 133 -43 37 16 55
42 55 80 0 24 -3 26 -50 26 -38 0 -50 -4 -50 -15 0 -10 10 -15 30 -15 33 0 38
-11 14 -34 -21 -22 -67 -20 -87 2 -22 25 -21 75 1 95 23 21 65 22 82 2 7 -8
16 -15 20 -15 12 0 22 32 12 42 -16 16 -67 25 -99 16z"/>
<path d="M550 155 c0 -88 1 -95 20 -95 17 0 20 7 20 40 0 39 1 40 35 40 34 0
35 -1 35 -40 0 -29 4 -40 15 -40 12 0 15 17 15 95 0 78 -3 95 -15 95 -10 0
-15 -11 -15 -35 0 -33 -2 -35 -35 -35 -33 0 -35 2 -35 35 0 28 -4 35 -20 35
-19 0 -20 -7 -20 -95z"/>
<path d="M702 170 c4 -90 18 -113 67 -113 55 0 71 25 71 115 0 71 -2 78 -20
78 -17 0 -19 -8 -22 -77 -3 -67 -6 -78 -22 -81 -27 -6 -36 15 -36 91 0 61 -2
67 -21 67 -20 0 -21 -4 -17 -80z"/>
<path d="M867 218 c-4 -18 -9 -61 -13 -96 -5 -52 -4 -62 9 -62 19 0 27 21 27
71 0 51 14 43 30 -18 22 -78 48 -77 70 2 7 25 16 45 21 45 4 0 9 -21 11 -47 2
-38 7 -49 22 -51 17 -4 18 1 12 59 -13 118 -16 129 -41 129 -19 0 -25 -10 -41
-64 l-18 -63 -20 61 c-16 47 -26 62 -42 64 -17 2 -23 -3 -27 -30z"/>
<path d="M1458 220 c-27 -28 -30 -36 -25 -73 7 -53 44 -87 93 -87 24 0 34 5
34 15 0 9 -9 15 -25 15 -14 0 -35 10 -47 22 l-23 23 48 3 c33 2 47 7 47 18 0
10 -12 14 -45 14 -25 0 -45 4 -45 9 0 20 46 41 87 41 l43 0 0 -80 c0 -73 2
-80 20 -80 18 0 20 7 20 80 0 79 0 80 25 80 16 0 25 6 25 15 0 12 -18 15 -101
15 -99 0 -101 -1 -131 -30z"/>
<path d="M1847 243 c-4 -3 -7 -46 -7 -95 0 -81 2 -88 20 -88 18 0 20 7 20 58
l1 57 30 -58 c53 -103 79 -88 79 46 0 80 -2 87 -20 87 -18 0 -20 -7 -21 -62
l0 -63 -29 63 c-21 44 -35 62 -48 62 -10 0 -22 -3 -25 -7z"/>
</g>
</svg>
