<?xml version="1.0" standalone="no"?>
<!DOCTYPE svg PUBLIC "-//W3C//DTD SVG 20010904//EN"
 "http://www.w3.org/TR/2001/REC-SVG-20010904/DTD/svg10.dtd">
<svg version="1.0" xmlns="http://www.w3.org/2000/svg"
 width="513.000000pt" height="287.000000pt" viewBox="0 0 513.000000 287.000000"
 preserveAspectRatio="xMidYMid meet">
<metadata>
Created by potrace 1.16, written by Peter Selinger 2001-2019
</metadata>
<g transform="translate(0.000000,287.000000) scale(0.100000,-0.100000)"
fill="#000000" stroke="none">
<path d="M1660 2851 c0 -10 11 -34 25 -54 13 -20 21 -38 17 -41 -4 -2 -38 2
-77 10 -91 17 -105 17 -105 -1 0 -19 28 -30 95 -39 86 -12 85 -3 14 -210 -41
-120 -60 -189 -54 -195 6 -5 24 -11 40 -13 l30 -3 58 178 c50 150 61 176 73
166 8 -6 51 -64 96 -128 45 -64 132 -186 193 -271 112 -155 212 -304 178 -264
-10 12 -55 76 -101 142 -71 103 -87 121 -115 126 -52 9 -346 36 -399 36 -48 0
-49 1 -67 43 -11 23 -26 51 -35 62 -14 18 -15 18 -16 3 0 -10 9 -32 19 -49 16
-25 17 -35 8 -50 -10 -15 -24 -19 -77 -19 -46 0 -61 -3 -50 -10 8 -5 38 -10
66 -10 28 0 53 -3 56 -6 7 -6 -21 -101 -45 -154 -8 -19 -16 -29 -16 -22 -1 17
-283 -127 -488 -250 -449 -269 -776 -568 -908 -828 -54 -108 -75 -190 -75
-299 0 -101 31 -241 54 -241 6 0 24 41 39 91 36 116 47 110 13 -7 -14 -48 -26
-96 -26 -106 0 -19 70 -123 98 -145 26 -21 60 -15 78 12 12 19 15 40 12 88 -5
53 -2 65 15 85 27 30 29 117 4 155 -39 59 -106 77 -139 37 -23 -28 -23 -28 7
61 84 245 272 522 507 743 181 171 436 357 666 486 62 35 120 72 128 84 7 11
14 17 14 14 0 -4 -52 -154 -116 -333 -64 -180 -114 -328 -112 -330 2 -3 27 11
56 30 44 30 53 43 68 90 10 30 20 53 22 50 2 -2 -2 -23 -9 -47 -10 -32 -13
-93 -11 -235 l3 -191 47 -6 c26 -4 94 -11 152 -16 58 -5 175 -16 260 -24 85
-8 190 -18 233 -20 l78 -6 -6 183 c-4 100 -8 188 -10 194 -3 8 -15 11 -33 7
-32 -6 -48 5 -80 58 -10 18 -108 185 -217 371 -109 185 -201 337 -205 337 -4
0 -10 -8 -13 -17 -16 -51 -56 -146 -56 -135 -1 18 60 172 68 172 4 0 98 -156
210 -347 112 -192 215 -366 228 -387 l25 -39 202 5 201 5 -157 -10 -157 -9 4
-42 c3 -22 7 -112 9 -199 l4 -157 -39 0 -39 0 0 -154 c0 -85 3 -161 6 -170 5
-12 20 -16 60 -16 l54 0 0 180 0 179 33 5 c91 14 121 16 169 10 l53 -6 -3
-158 -3 -157 48 -7 c70 -9 73 -2 73 185 l0 156 78 7 c97 8 219 15 171 9 -33
-4 -37 -7 -43 -41 -7 -47 -8 -200 0 -228 6 -23 46 -35 90 -26 l24 4 0 148 c0
109 -3 150 -12 153 -7 3 7 6 32 8 121 6 164 6 153 2 -10 -3 -13 -39 -13 -133
l0 -127 34 -6 c75 -12 76 -11 76 139 l0 134 -32 1 c-36 2 53 15 137 21 39 2
50 0 51 -12 0 -8 2 -61 2 -116 l2 -101 31 -7 c17 -3 42 -3 55 0 24 6 24 8 24
129 l0 123 66 7 c36 4 68 4 71 1 4 -3 1 -6 -5 -6 -8 0 -12 -30 -12 -98 0 -65
-4 -103 -12 -111 -11 -11 -3 -12 42 -7 33 4 60 14 67 23 18 23 18 199 1 206
-7 3 4 6 25 6 l37 1 0 160 0 160 -72 1 -73 2 95 9 c52 5 152 10 223 10 70 1
127 5 127 9 0 8 -135 141 -295 291 -38 36 -71 71 -73 78 -2 10 57 11 288 5
252 -6 290 -5 290 8 0 8 -153 133 -341 278 l-340 264 -217 41 c-253 48 -251
50 53 63 182 7 403 1 548 -14 l67 -8 0 87 0 86 -122 0 c-228 0 -528 -35 -842
-96 -195 -38 -189 -39 -376 2 -36 8 -227 43 -425 79 -198 36 -383 70 -411 76
-47 9 -55 15 -88 64 -36 55 -66 71 -66 36z"/>
<path d="M4012 2598 c3 -79 6 -93 21 -96 14 -3 17 4 17 39 l0 42 38 -7 c20 -3
47 -6 60 -6 20 0 22 -5 22 -50 0 -27 4 -50 9 -50 5 0 16 -3 24 -6 12 -4 16 13
22 101 4 58 6 107 4 109 -2 2 -16 6 -31 10 -27 6 -28 6 -28 -40 l0 -46 -31 6
c-17 3 -44 6 -60 6 -27 0 -29 3 -29 40 0 34 -3 40 -20 40 -20 0 -21 -5 -18
-92z"/>
<path d="M4238 2603 c0 -43 0 -87 1 -97 6 -65 150 -123 204 -83 15 10 82 205
75 213 -2 1 -20 5 -40 9 -35 7 -38 5 -44 -21 -41 -181 -43 -184 -100 -170 -44
11 -54 42 -44 131 10 83 6 95 -32 95 -16 0 -18 -11 -20 -77z"/>
<path d="M1765 2629 c-19 -51 -104 -323 -102 -325 1 -2 79 -10 172 -19 94 -9
178 -18 189 -21 14 -5 7 10 -26 57 -25 35 -78 111 -118 169 -105 150 -109 155
-115 139z"/>
<path d="M4545 2608 c-2 -7 -22 -64 -45 -127 -22 -62 -37 -117 -34 -122 14
-24 32 -1 61 79 l31 87 -5 -112 c-6 -109 1 -143 27 -143 5 0 38 41 74 92 36
50 66 88 66 84 0 -4 -14 -61 -30 -127 l-31 -120 23 -19 c13 -10 24 -17 26 -15
2 1 23 80 48 176 49 186 49 219 2 219 -33 0 -39 -6 -98 -95 -29 -44 -56 -84
-61 -89 -4 -5 -7 47 -6 115 2 122 2 124 -21 127 -12 2 -24 -3 -27 -10z"/>
<path d="M4885 2461 c-37 -16 -57 -50 -112 -193 -51 -133 -61 -188 -34 -188 5
0 24 38 42 83 l33 84 44 -60 44 -59 -42 -100 -41 -99 19 -31 c18 -28 21 -29
30 -12 23 44 121 282 131 319 28 102 1 219 -58 249 -16 9 -31 16 -33 15 -2 0
-12 -4 -23 -8z"/>
<path d="M5045 2228 c-16 -51 -237 -540 -270 -596 -52 -89 -146 -204 -251
-308 -331 -327 -964 -717 -1391 -858 -462 -151 -933 -265 -1231 -298 l-102
-11 0 -59 c0 -71 -13 -70 215 -23 536 109 1542 432 1992 639 452 207 788 460
960 722 89 136 131 246 152 399 23 159 -42 500 -74 393z"/>
<path d="M1532 878 l3 -183 60 3 c40 2 64 9 72 19 9 12 12 59 9 172 l-4 156
-38 7 c-22 4 -54 7 -72 7 l-33 1 3 -182z"/>
<path d="M362 473 c-22 -9 -42 -61 -42 -110 1 -61 28 -121 79 -172 42 -42 114
-85 125 -74 16 16 1 41 -42 68 -48 31 -107 111 -100 138 2 11 21 4 81 -30 44
-24 80 -43 82 -41 2 2 5 12 7 22 2 14 -16 30 -79 68 -46 27 -83 53 -83 59 0
16 47 28 77 20 16 -5 44 -16 62 -26 23 -11 37 -13 43 -7 19 19 -1 42 -54 67
-50 23 -122 32 -156 18z"/>
<path d="M620 376 c0 -20 8 -27 50 -41 28 -9 50 -17 50 -18 0 -1 -11 -58 -25
-127 -26 -133 -24 -143 25 -138 23 3 25 10 45 118 22 125 21 123 88 105 23 -6
27 -4 27 13 0 16 -22 28 -126 66 -69 25 -128 46 -130 46 -2 0 -4 -11 -4 -24z"/>
<path d="M946 257 c-17 -17 -25 -40 -30 -83 -4 -32 -10 -81 -13 -107 l-6 -48
34 3 34 3 10 94 c13 117 38 142 109 110 22 -11 55 -64 45 -74 -4 -3 -39 3
-116 20 -19 4 -23 1 -23 -19 0 -21 6 -25 48 -30 86 -13 84 -11 76 -72 -6 -53
-6 -54 19 -54 27 0 26 -3 43 123 4 29 2 59 -6 78 -30 71 -173 107 -224 56z"/>
<path d="M1236 214 c-3 -9 -6 -58 -6 -110 l0 -94 34 0 35 0 6 58 c3 31 7 65 8
75 1 12 20 -5 56 -53 29 -39 62 -75 73 -81 19 -10 58 -4 58 9 0 4 6 44 14 90
13 78 12 82 -5 82 -11 0 -22 1 -26 2 -5 1 -12 -29 -18 -67 l-10 -69 -53 77
c-29 42 -62 81 -72 87 -30 16 -87 12 -94 -6z"/>
<path d="M1593 168 c-12 -6 -27 -23 -34 -39 -24 -59 25 -115 100 -113 49 2 79
19 87 50 8 31 9 30 -43 37 -33 4 -43 2 -43 -9 0 -9 11 -14 32 -14 30 0 31 0
13 -20 -23 -26 -69 -26 -95 0 -54 54 23 120 87 75 18 -13 22 -13 33 0 26 31
-85 58 -137 33z"/>
</g>
</svg>
